# xmcd
#
# Track frame offsets:
#	150
#	25513
#	53615
#	77983
#	104584
#	137241
#	170674
#	189139
#	212874
#
# Disc length: 3388 seconds
#
# Revision: 1
# Processed by: cddbd v1.5.2PL0 Copyright (c) Steve Scherf et al.
# Submitted via: audiograbber 1.83.01
#
DISCID=760d3a09
DTITLE=Joe Bonamassa - Live At BBC Maida Vale Studios
DYEAR=2008
DGENRE=Blues Rock
TTITLE0=Bridge To Better Days
TTITLE1=Go Many Roads
TTITLE2=Chat
TTITLE3=One Of These Days
TTITLE4=Sloe Gin
TTITLE5=Q and A Session
TTITLE6=Woke Up Dreaming
TTITLE7=You Upset Me Baby (Feat. Paul Jones)
TTITLE8=Just Got Paid
EXTD=
EXTT0=
EXTT1=
EXTT2=
EXTT3=
EXTT4=
EXTT5=
EXTT6=
EXTT7=
EXTT8=
PLAYORDER=
